<svg xmlns="http://www.w3.org/2000/svg" width="16" height="14" viewBox="0 0 16 14" fill="none">
  <g clip-path="url(#clip0_8_5058)">
    <path d="M4.24194 6.87411C4.24194 6.23006 4.40061 5.67938 4.71793 5.22207C5.03525 4.76475 5.46926 4.41948 6.01994 4.18613C6.52387 3.97144 7.14461 3.81754 7.88203 3.72405C8.13393 3.6961 8.54462 3.65876 9.11398 3.61201V3.37402C9.11398 2.77671 9.04868 2.37542 8.91797 2.17001C8.72196 1.88991 8.41403 1.75005 7.99394 1.75005H7.88203C7.57398 1.77799 7.30791 1.876 7.08395 2.04394C6.86 2.212 6.71524 2.44523 6.64995 2.744C6.6126 2.93061 6.51936 3.03789 6.36997 3.06597L4.75991 2.86996C4.60125 2.83261 4.52192 2.74864 4.52192 2.61793C4.52192 2.58998 4.52656 2.55727 4.53583 2.52005C4.69449 1.68939 5.08413 1.07341 5.70487 0.671996C6.32548 0.270829 7.05124 0.0467465 7.88203 0H8.23206C9.29582 0 10.1266 0.27534 10.7242 0.826021C10.8177 0.919765 10.9044 1.02028 10.9831 1.12693C11.0622 1.23421 11.1253 1.32996 11.1718 1.41392C11.2186 1.49789 11.2607 1.61933 11.2979 1.77787C11.3354 1.93666 11.3632 2.04632 11.3821 2.10685C11.4007 2.16751 11.4147 2.29822 11.424 2.49899C11.4333 2.69964 11.4379 2.81857 11.4379 2.85592V6.24397C11.4379 6.4866 11.4729 6.7083 11.5429 6.90895C11.613 7.10972 11.6808 7.25435 11.7458 7.34295C11.8111 7.43156 11.9186 7.57405 12.0679 7.76981C12.1239 7.85403 12.1519 7.92873 12.1519 7.99402C12.1519 8.06871 12.1146 8.13376 12.0397 8.1899C11.2652 8.86203 10.8452 9.2261 10.7798 9.28212C10.6679 9.36609 10.5325 9.37536 10.3738 9.31006C10.2433 9.1979 10.129 9.09074 10.0309 8.98798C9.93298 8.88546 9.86292 8.81077 9.82081 8.76402C9.77895 8.71752 9.71115 8.62641 9.61791 8.49106C9.52467 8.35571 9.459 8.2646 9.4219 8.2181C8.89929 8.78746 8.38596 9.14213 7.88203 9.28212C7.56458 9.37536 7.17256 9.42211 6.70597 9.42211C5.98723 9.42211 5.39694 9.20028 4.93499 8.757C4.47292 8.3136 4.24194 7.68597 4.24194 6.87411ZM6.64995 6.59401C6.64995 6.95808 6.74106 7.24971 6.92291 7.46903C7.10501 7.68835 7.34989 7.79801 7.65794 7.79801C7.68602 7.79801 7.72562 7.79337 7.777 7.7841C7.82814 7.77457 7.86323 7.76994 7.88203 7.76994C8.27392 7.66742 8.57721 7.41552 8.79189 7.0141C8.89466 6.83676 8.97161 6.64314 9.02299 6.43309C9.07437 6.22317 9.10232 6.05273 9.10696 5.92201C9.1116 5.79142 9.1141 5.57674 9.1141 5.27809V4.92805C8.5727 4.92805 8.16213 4.9654 7.88215 5.0401C7.06052 5.27333 6.64995 5.7913 6.64995 6.59401Z" fill="black"/>
    <path d="M12.5299 11.1021C12.5487 11.0646 12.5767 11.0274 12.6141 10.9899C12.8474 10.8313 13.0713 10.7241 13.286 10.6681C13.6407 10.5748 13.9861 10.5235 14.322 10.5141C14.4155 10.5045 14.5041 10.5094 14.588 10.528C15.0081 10.5652 15.2599 10.6354 15.3441 10.738C15.3813 10.794 15.3999 10.878 15.3999 10.9899V11.088C15.3999 11.4145 15.3113 11.7996 15.1341 12.2429C14.9566 12.6862 14.7093 13.0434 14.3919 13.3141C14.3454 13.3513 14.3033 13.3699 14.2661 13.3699C14.2473 13.3699 14.2286 13.3652 14.21 13.3559C14.154 13.328 14.14 13.2766 14.1679 13.2019C14.5133 12.3899 14.6859 11.8253 14.6859 11.5078C14.6859 11.4052 14.6674 11.3306 14.6301 11.2838C14.5366 11.1719 14.2755 11.1159 13.8461 11.1159C13.6872 11.1159 13.5007 11.1251 13.286 11.1438C13.0528 11.172 12.8381 11.1998 12.642 11.228C12.586 11.228 12.5487 11.2185 12.5298 11.1998C12.5113 11.1813 12.5065 11.1626 12.5159 11.1438C12.5159 11.1347 12.5205 11.1206 12.5299 11.1021ZM0.0279476 10.8642C0.0746941 10.7895 0.149263 10.7849 0.25203 10.8501C2.58534 12.2034 5.12406 12.8802 7.86794 12.8802C9.69745 12.8802 11.5034 12.5394 13.286 11.858C13.3325 11.8395 13.4003 11.8116 13.4889 11.7741C13.5778 11.7369 13.6407 11.7088 13.6779 11.6901C13.8179 11.6341 13.9276 11.6622 14.0069 11.7741C14.0865 11.8862 14.0608 11.9888 13.9301 12.082C13.7619 12.2034 13.5472 12.3434 13.286 12.5021C12.4834 12.9782 11.5872 13.3468 10.5979 13.6082C9.60872 13.8697 8.64258 14.0001 7.70001 14.0001C6.24397 14.0001 4.86727 13.7458 3.57003 13.2371C2.27265 12.7284 1.11064 12.0119 0.0839682 11.0882C0.0279476 11.0414 0 10.9947 0 10.9481C0 10.92 0.0092741 10.892 0.0279476 10.8642Z" fill="#FF9900"/>
  </g>
  <defs>
    <clipPath id="clip0_8_5058">
      <rect width="15.3999" height="14" fill="white"/>
    </clipPath>
  </defs>
</svg>