<svg xmlns="http://www.w3.org/2000/svg" width="16" height="16" viewBox="0 0 16 16" fill="none">
  <path d="M7.52181 2.30223C7.67547 1.99094 7.75229 1.83529 7.85659 1.78556C7.94734 1.7423 8.05277 1.7423 8.14351 1.78556C8.24781 1.83529 8.32464 1.99094 8.4783 2.30223L9.93608 5.25554C9.98144 5.34744 10.0041 5.39339 10.0373 5.42907C10.0666 5.46066 10.1018 5.48625 10.1409 5.50443C10.1851 5.52497 10.2358 5.53238 10.3372 5.5472L13.598 6.02382C13.9414 6.07401 14.1131 6.09911 14.1926 6.18298C14.2617 6.25595 14.2942 6.35622 14.281 6.45587C14.2659 6.57041 14.1416 6.69147 13.893 6.93361L11.5343 9.23097C11.4608 9.30258 11.424 9.33839 11.4003 9.38099C11.3793 9.41872 11.3658 9.46016 11.3607 9.50302C11.3548 9.55143 11.3635 9.60202 11.3808 9.70318L11.9373 12.9481C11.996 13.2903 12.0254 13.4615 11.9702 13.563C11.9222 13.6514 11.8369 13.7133 11.7381 13.7317C11.6245 13.7527 11.4708 13.6719 11.1634 13.5103L8.24829 11.9772C8.15746 11.9295 8.11205 11.9056 8.0642 11.8962C8.02184 11.8879 7.97827 11.8879 7.9359 11.8962C7.88806 11.9056 7.84264 11.9295 7.75181 11.9772L4.83666 13.5103C4.52932 13.6719 4.37565 13.7527 4.26202 13.7317C4.16316 13.7133 4.07786 13.6514 4.02987 13.563C3.97471 13.4615 4.00406 13.2903 4.06276 12.9481L4.6193 9.70318C4.63665 9.60202 4.64532 9.55143 4.63945 9.50302C4.63426 9.46016 4.62078 9.41872 4.59978 9.38099C4.57606 9.33839 4.53929 9.30258 4.46576 9.23097L2.10708 6.93361C1.85848 6.69147 1.73418 6.57041 1.71906 6.45587C1.7059 6.35622 1.73841 6.25595 1.80754 6.18298C1.887 6.09911 2.05869 6.07401 2.40207 6.02382L5.66291 5.5472C5.76432 5.53238 5.81503 5.52497 5.85919 5.50443C5.89828 5.48625 5.93348 5.46066 5.96283 5.42907C5.99598 5.39339 6.01866 5.34744 6.06402 5.25554L7.52181 2.30223Z" fill="#FF9900"/>
</svg>